<?xml version='1.0' encoding='utf-8'?>
<svg xmlns="http://www.w3.org/2000/svg" version="1.1" id="Layer_1" x="0px" y="0px" viewBox="0 0 4829.3057 5001.8579" enable-background="new 0 0 4829.3057 5001.8579"> <g> <ellipse fill="none" stroke="#000000" stroke-width="2" stroke-miterlimit="10" cx="2587.2051" cy="3642.5823" rx="756.4205" ry="989.1653"/> <ellipse fill="none" stroke="#000000" stroke-width="2" stroke-miterlimit="10" cx="2587.2051" cy="3640.5757" rx="756.4205" ry="987.1589"/> <ellipse fill="none" stroke="#000000" stroke-width="2" stroke-miterlimit="10" cx="2587.2051" cy="3640.5757" rx="756.4205" ry="987.1589"/> <ellipse fill="none" stroke="#000000" stroke-width="2" stroke-miterlimit="10" cx="2583.1921" cy="3640.5757" rx="752.4077" ry="987.1589"/> <ellipse fill="none" stroke="#000000" stroke-width="2" stroke-miterlimit="10" cx="2579.1792" cy="3640.5757" rx="748.3948" ry="987.1589"/> <ellipse fill="none" stroke="#000000" stroke-width="2" stroke-miterlimit="10" cx="2573.1602" cy="3640.5757" rx="742.3756" ry="987.1589"/> <ellipse fill="none" stroke="#000000" stroke-width="2" stroke-miterlimit="10" cx="2569.1472" cy="3638.5693" rx="738.3627" ry="985.1525"/> <ellipse fill="none" stroke="#000000" stroke-width="2" stroke-miterlimit="10" cx="2565.1343" cy="3636.563" rx="734.3499" ry="983.1461"/> <ellipse fill="none" stroke="#000000" stroke-width="2" stroke-miterlimit="10" cx="2557.1086" cy="3634.5564" rx="726.3242" ry="981.1396"/> <ellipse fill="none" stroke="#000000" stroke-width="2" stroke-miterlimit="10" cx="2543.0637" cy="3630.5437" rx="712.2793" ry="977.1268"/> <ellipse fill="none" stroke="#000000" stroke-width="2" stroke-miterlimit="10" cx="2531.0251" cy="3624.5244" rx="700.2408" ry="971.1075"/> <ellipse fill="none" stroke="#000000" stroke-width="2" stroke-miterlimit="10" cx="2518.9866" cy="3618.5051" rx="688.2023" ry="965.0883"/> <ellipse fill="none" stroke="#000000" stroke-width="2" stroke-miterlimit="10" cx="2504.9417" cy="3610.4795" rx="674.1573" ry="957.0626"/> <ellipse fill="none" stroke="#000000" stroke-width="2" stroke-miterlimit="10" cx="2488.8904" cy="3600.4473" rx="658.106" ry="947.0305"/> <ellipse fill="none" stroke="#000000" stroke-width="2" stroke-miterlimit="10" cx="2472.8391" cy="3590.4153" rx="642.0546" ry="936.9984"/> <ellipse fill="none" stroke="#000000" stroke-width="2" stroke-miterlimit="10" cx="2456.7876" cy="3582.3896" rx="626.0032" ry="928.9727"/> <ellipse fill="none" stroke="#000000" stroke-width="2" stroke-miterlimit="10" cx="2444.749" cy="3576.3704" rx="613.9647" ry="922.9534"/> <ellipse fill="none" stroke="#000000" stroke-width="2" stroke-miterlimit="10" cx="2432.7107" cy="3566.3381" rx="601.9261" ry="912.9213"/> <ellipse fill="none" stroke="#000000" stroke-width="2" stroke-miterlimit="10" cx="2416.6592" cy="3556.3062" rx="585.8748" ry="902.8892"/> <ellipse fill="none" stroke="#000000" stroke-width="2" stroke-miterlimit="10" cx="2398.6016" cy="3544.2676" rx="567.817" ry="890.8507"/> <ellipse fill="none" stroke="#000000" stroke-width="2" stroke-miterlimit="10" cx="2382.55" cy="3534.2356" rx="551.7656" ry="880.8186"/> <ellipse fill="none" stroke="#000000" stroke-width="2" stroke-miterlimit="10" cx="2368.5051" cy="3526.2097" rx="537.7207" ry="872.7929"/> <ellipse fill="none" stroke="#000000" stroke-width="2" stroke-miterlimit="10" cx="2356.4666" cy="3516.1777" rx="525.6822" ry="862.7609"/> <ellipse fill="none" stroke="#000000" stroke-width="2" stroke-miterlimit="10" cx="2344.428" cy="3510.1584" rx="513.6437" ry="856.7416"/> <ellipse fill="none" stroke="#000000" stroke-width="2" stroke-miterlimit="10" cx="2334.396" cy="3502.1328" rx="503.6115" ry="848.7159"/> <ellipse fill="none" stroke="#000000" stroke-width="2" stroke-miterlimit="10" cx="2322.3574" cy="3496.1135" rx="491.573" ry="842.6967"/> <ellipse fill="none" stroke="#000000" stroke-width="2" stroke-miterlimit="10" cx="2308.3125" cy="3488.0879" rx="477.5281" ry="834.671"/> <ellipse fill="none" stroke="#000000" stroke-width="2" stroke-miterlimit="10" cx="2294.2676" cy="3482.0686" rx="463.4832" ry="828.6517"/> <ellipse fill="none" stroke="#000000" stroke-width="2" stroke-miterlimit="10" cx="2282.229" cy="3476.0493" rx="451.4446" ry="822.6324"/> <ellipse fill="none" stroke="#000000" stroke-width="2" stroke-miterlimit="10" cx="2272.197" cy="3470.03" rx="441.4125" ry="816.6132"/> <ellipse fill="none" stroke="#000000" stroke-width="2" stroke-miterlimit="10" cx="2268.1841" cy="3468.0237" rx="437.3997" ry="814.6068"/> <ellipse fill="none" stroke="#000000" stroke-width="2" stroke-miterlimit="10" cx="2258.1521" cy="3462.0044" rx="427.3676" ry="808.5875"/> <ellipse fill="none" stroke="#000000" stroke-width="2" stroke-miterlimit="10" cx="2250.1262" cy="3455.9851" rx="419.3419" ry="802.5682"/> <ellipse fill="none" stroke="#000000" stroke-width="2" stroke-miterlimit="10" cx="2242.1006" cy="3451.9722" rx="411.3162" ry="798.5554"/> <ellipse fill="none" stroke="#000000" stroke-width="2" stroke-miterlimit="10" cx="2232.0686" cy="3443.9465" rx="401.2841" ry="790.5297"/> <ellipse fill="none" stroke="#000000" stroke-width="2" stroke-miterlimit="10" cx="2220.03" cy="3433.9146" rx="389.2456" ry="780.4976"/> <ellipse fill="none" stroke="#000000" stroke-width="2" stroke-miterlimit="10" cx="2203.9788" cy="3423.8823" rx="373.1942" ry="770.4655"/> <ellipse fill="none" stroke="#000000" stroke-width="2" stroke-miterlimit="10" cx="2185.9209" cy="3409.8374" rx="355.1364" ry="756.4205"/> <ellipse fill="none" stroke="#000000" stroke-width="2" stroke-miterlimit="10" cx="2175.8887" cy="3399.8054" rx="345.1043" ry="746.3884"/> <ellipse fill="none" stroke="#000000" stroke-width="2" stroke-miterlimit="10" cx="2167.863" cy="3387.7668" rx="337.0786" ry="734.3499"/> <ellipse fill="none" stroke="#000000" stroke-width="2" stroke-miterlimit="10" cx="2153.8181" cy="3371.7153" rx="323.0337" ry="718.2986"/> <ellipse fill="none" stroke="#000000" stroke-width="2" stroke-miterlimit="10" cx="2145.7925" cy="3357.6704" rx="315.008" ry="704.2536"/> <ellipse fill="none" stroke="#000000" stroke-width="2" stroke-miterlimit="10" cx="2133.7539" cy="3343.6255" rx="302.9695" ry="690.2087"/> <ellipse fill="none" stroke="#000000" stroke-width="2" stroke-miterlimit="10" cx="2123.7219" cy="3329.5806" rx="292.9374" ry="676.1637"/> <ellipse fill="none" stroke="#000000" stroke-width="2" stroke-miterlimit="10" cx="2115.696" cy="3315.5356" rx="284.9117" ry="662.1188"/> <ellipse fill="none" stroke="#000000" stroke-width="2" stroke-miterlimit="10" cx="2107.6704" cy="3303.4971" rx="276.886" ry="650.0803"/> <ellipse fill="none" stroke="#000000" stroke-width="2" stroke-miterlimit="10" cx="2093.6255" cy="3285.4395" rx="262.8411" ry="632.0225"/> <ellipse fill="none" stroke="#000000" stroke-width="2" stroke-miterlimit="10" cx="2079.5806" cy="3265.3752" rx="248.7961" ry="611.9583"/> <ellipse fill="none" stroke="#000000" stroke-width="2" stroke-miterlimit="10" cx="2067.542" cy="3249.3237" rx="236.7576" ry="595.9069"/> <ellipse fill="none" stroke="#000000" stroke-width="2" stroke-miterlimit="10" cx="2055.5034" cy="3231.2659" rx="224.7191" ry="577.8491"/> <ellipse fill="none" stroke="#000000" stroke-width="2" stroke-miterlimit="10" cx="2045.4714" cy="3217.2209" rx="214.687" ry="563.8042"/> <ellipse fill="none" stroke="#000000" stroke-width="2" stroke-miterlimit="10" cx="2035.4393" cy="3201.1697" rx="204.6549" ry="547.7528"/> <ellipse fill="none" stroke="#000000" stroke-width="2" stroke-miterlimit="10" cx="2027.4137" cy="3189.1311" rx="196.6292" ry="535.7143"/> <ellipse fill="none" stroke="#000000" stroke-width="2" stroke-miterlimit="10" cx="2019.3879" cy="3183.1118" rx="188.6035" ry="529.695"/> <ellipse fill="none" stroke="#000000" stroke-width="2" stroke-miterlimit="10" cx="2015.3751" cy="3175.0862" rx="184.5907" ry="521.6693"/> <ellipse fill="none" stroke="#000000" stroke-width="2" stroke-miterlimit="10" cx="2009.3558" cy="3167.0605" rx="178.5714" ry="513.6437"/> <ellipse fill="none" stroke="#000000" stroke-width="2" stroke-miterlimit="10" cx="2001.3302" cy="3153.0156" rx="170.5457" ry="499.5987"/> <ellipse fill="none" stroke="#000000" stroke-width="2" stroke-miterlimit="10" cx="1993.3044" cy="3138.9707" rx="162.5201" ry="485.5538"/> <ellipse fill="none" stroke="#000000" stroke-width="2" stroke-miterlimit="10" cx="1981.266" cy="3124.9258" rx="150.4815" ry="471.5088"/> <ellipse fill="none" stroke="#000000" stroke-width="2" stroke-miterlimit="10" cx="1975.2467" cy="3114.8936" rx="144.4623" ry="461.4767"/> <ellipse fill="none" stroke="#000000" stroke-width="2" stroke-miterlimit="10" cx="1969.2274" cy="3104.8616" rx="138.443" ry="451.4446"/> <ellipse fill="none" stroke="#000000" stroke-width="2" stroke-miterlimit="10" cx="1965.2146" cy="3096.8357" rx="134.4302" ry="443.4189"/> <ellipse fill="none" stroke="#000000" stroke-width="2" stroke-miterlimit="10" cx="1959.1953" cy="3084.7974" rx="128.4109" ry="431.3804"/> <ellipse fill="none" stroke="#000000" stroke-width="2" stroke-miterlimit="10" cx="1953.1761" cy="3072.7588" rx="122.3917" ry="419.3419"/> <ellipse fill="none" stroke="#000000" stroke-width="2" stroke-miterlimit="10" cx="1947.1569" cy="3062.7266" rx="116.3724" ry="409.3098"/> <ellipse fill="none" stroke="#000000" stroke-width="2" stroke-miterlimit="10" cx="1943.144" cy="3054.7009" rx="112.3596" ry="401.2841"/> <ellipse fill="none" stroke="#000000" stroke-width="2" stroke-miterlimit="10" cx="1939.1311" cy="3046.6753" rx="108.3467" ry="393.2584"/> <ellipse fill="none" stroke="#000000" stroke-width="2" stroke-miterlimit="10" cx="1935.1183" cy="3036.6431" rx="104.3339" ry="383.2263"/> <ellipse fill="none" stroke="#000000" stroke-width="2" stroke-miterlimit="10" cx="1931.1055" cy="3024.6047" rx="100.321" ry="371.1878"/> <ellipse fill="none" stroke="#000000" stroke-width="2" stroke-miterlimit="10" cx="1927.0927" cy="3018.5854" rx="96.3082" ry="365.1685"/> <ellipse fill="none" stroke="#000000" stroke-width="2" stroke-miterlimit="10" cx="1923.0798" cy="3008.5532" rx="92.2953" ry="355.1364"/> <ellipse fill="none" stroke="#000000" stroke-width="2" stroke-miterlimit="10" cx="1919.0669" cy="3000.5276" rx="88.2825" ry="347.1107"/> <ellipse fill="none" stroke="#000000" stroke-width="2" stroke-miterlimit="10" cx="1915.0541" cy="2988.489" rx="84.2697" ry="335.0722"/> <ellipse fill="none" stroke="#000000" stroke-width="2" stroke-miterlimit="10" cx="1911.0413" cy="2976.4507" rx="80.2568" ry="323.0337"/> <ellipse fill="none" stroke="#000000" stroke-width="2" stroke-miterlimit="10" cx="1903.0156" cy="2954.3799" rx="72.2311" ry="300.9631"/> <ellipse fill="none" stroke="#000000" stroke-width="2" stroke-miterlimit="10" cx="1899.0027" cy="2938.3286" rx="68.2183" ry="284.9117"/> <ellipse fill="none" stroke="#000000" stroke-width="2" stroke-miterlimit="10" cx="1894.9899" cy="2926.29" rx="64.2055" ry="272.8732"/> <ellipse fill="none" stroke="#000000" stroke-width="2" stroke-miterlimit="10" cx="1892.9835" cy="2916.2581" rx="62.199" ry="262.8411"/> <ellipse fill="none" stroke="#000000" stroke-width="2" stroke-miterlimit="10" cx="1890.9771" cy="2906.2258" rx="60.1926" ry="252.809"/> <ellipse fill="none" stroke="#000000" stroke-width="2" stroke-miterlimit="10" cx="1897.9995" cy="2875.1262" rx="67.2151" ry="221.7095"/> <ellipse fill="none" stroke="#000000" stroke-width="2" stroke-miterlimit="10" cx="1888.9706" cy="2858.0718" rx="58.1862" ry="204.6549"/> <ellipse fill="none" stroke="#000000" stroke-width="2" stroke-miterlimit="10" cx="1880.9449" cy="2839.0107" rx="50.1605" ry="185.5939"/> <ellipse fill="none" stroke="#000000" stroke-width="2" stroke-miterlimit="10" cx="1874.9257" cy="2826.9722" rx="44.1413" ry="173.5554"/> <ellipse fill="none" stroke="#000000" stroke-width="2" stroke-miterlimit="10" cx="1894.9899" cy="2789.8535" rx="64.2055" ry="136.4366"/> <ellipse fill="none" stroke="#000000" stroke-width="2" stroke-miterlimit="10" cx="1894.9899" cy="2789.8535" rx="64.2055" ry="136.4366"/> <ellipse fill="none" stroke="#000000" stroke-width="2" stroke-miterlimit="10" cx="1897.9995" cy="2764.2715" rx="67.2151" ry="110.8547"/> <ellipse fill="none" stroke="#000000" stroke-width="2" stroke-miterlimit="10" cx="1907.0284" cy="2739.6929" rx="76.244" ry="86.2761"/> <ellipse fill="none" stroke="#000000" stroke-width="2" stroke-miterlimit="10" cx="1897.9995" cy="2708.8442" rx="67.2151" ry="55.4274"/> <ellipse fill="none" stroke="#000000" stroke-width="2" stroke-miterlimit="10" cx="1907.0284" cy="2696.5549" rx="76.244" ry="43.138"/> <ellipse fill="none" stroke="#000000" stroke-width="2" stroke-miterlimit="10" cx="1907.0284" cy="2674.9858" rx="76.244" ry="21.569"/> <path fill="none" stroke="#000000" stroke-width="2" stroke-miterlimit="10" d="M2001.3302,2653.4167c0,0-38.178,0-85.2729,0 c-47.0948,0-85.2728,0-85.2728,0s38.178,0,85.2728,0C1963.1522,2653.4167,2001.3302,2653.4167,2001.3302,2653.4167z"/> <ellipse fill="none" stroke="#000000" stroke-width="2" stroke-miterlimit="10" cx="1947.1569" cy="2629.3398" rx="116.3724" ry="24.077"/> <ellipse fill="none" stroke="#000000" stroke-width="2" stroke-miterlimit="10" cx="1961.2018" cy="2609.2756" rx="130.4173" ry="44.1413"/> <ellipse fill="none" stroke="#000000" stroke-width="2" stroke-miterlimit="10" cx="1973.2402" cy="2595.2307" rx="142.4559" ry="58.1862"/> <ellipse fill="none" stroke="#000000" stroke-width="2" stroke-miterlimit="10" cx="1995.3109" cy="2575.1665" rx="164.5265" ry="78.2504"/> <ellipse fill="none" stroke="#000000" stroke-width="2" stroke-miterlimit="10" cx="2019.3879" cy="2557.1086" rx="188.6035" ry="96.3082"/> <ellipse fill="none" stroke="#000000" stroke-width="2" stroke-miterlimit="10" cx="2039.4521" cy="2537.0444" rx="208.6677" ry="116.3724"/> <ellipse fill="none" stroke="#000000" stroke-width="2" stroke-miterlimit="10" cx="2061.5227" cy="2520.9932" rx="230.7384" ry="132.4238"/> <ellipse fill="none" stroke="#000000" stroke-width="2" stroke-miterlimit="10" cx="2079.5806" cy="2506.9482" rx="248.7961" ry="146.4687"/> <ellipse fill="none" stroke="#000000" stroke-width="2" stroke-miterlimit="10" cx="2095.6318" cy="2494.9097" rx="264.8475" ry="158.5072"/> <ellipse fill="none" stroke="#000000" stroke-width="2" stroke-miterlimit="10" cx="2113.6897" cy="2482.8711" rx="282.9053" ry="170.5457"/> <ellipse fill="none" stroke="#000000" stroke-width="2" stroke-miterlimit="10" cx="2131.7476" cy="2472.8391" rx="300.9631" ry="180.5779"/> <ellipse fill="none" stroke="#000000" stroke-width="2" stroke-miterlimit="10" cx="2145.7925" cy="2462.8069" rx="315.008" ry="190.61"/> <ellipse fill="none" stroke="#000000" stroke-width="2" stroke-miterlimit="10" cx="2159.8374" cy="2456.7876" rx="329.053" ry="196.6292"/> <ellipse fill="none" stroke="#000000" stroke-width="2" stroke-miterlimit="10" cx="2175.8887" cy="2448.762" rx="345.1043" ry="204.6549"/> <ellipse fill="none" stroke="#000000" stroke-width="2" stroke-miterlimit="10" cx="2205.9851" cy="2434.717" rx="375.2007" ry="218.6998"/> <ellipse fill="none" stroke="#000000" stroke-width="2" stroke-miterlimit="10" cx="2240.0942" cy="2422.6785" rx="409.3098" ry="230.7384"/> <ellipse fill="none" stroke="#000000" stroke-width="2" stroke-miterlimit="10" cx="2270.1904" cy="2410.6399" rx="439.4061" ry="242.7769"/> <ellipse fill="none" stroke="#000000" stroke-width="2" stroke-miterlimit="10" cx="2310.3188" cy="2396.595" rx="479.5345" ry="256.8218"/> <ellipse fill="none" stroke="#000000" stroke-width="2" stroke-miterlimit="10" cx="2354.4602" cy="2380.5437" rx="523.6758" ry="272.8732"/> <ellipse fill="none" stroke="#000000" stroke-width="2" stroke-miterlimit="10" cx="2396.595" cy="2364.4922" rx="565.8106" ry="288.9246"/> <ellipse fill="none" stroke="#000000" stroke-width="2" stroke-miterlimit="10" cx="2438.73" cy="2346.4346" rx="607.9454" ry="306.9823"/> <ellipse fill="none" stroke="#000000" stroke-width="2" stroke-miterlimit="10" cx="2466.8198" cy="2334.396" rx="636.0353" ry="319.0209"/> <ellipse fill="none" stroke="#000000" stroke-width="2" stroke-miterlimit="10" cx="2486.884" cy="2324.3638" rx="656.0995" ry="329.053"/> <ellipse fill="none" stroke="#000000" stroke-width="2" stroke-miterlimit="10" cx="2510.9609" cy="2314.3318" rx="680.1766" ry="339.0851"/> <ellipse fill="none" stroke="#000000" stroke-width="2" stroke-miterlimit="10" cx="2541.0574" cy="2302.2932" rx="710.2729" ry="351.1236"/> <ellipse fill="none" stroke="#000000" stroke-width="2" stroke-miterlimit="10" cx="2573.1602" cy="2290.2546" rx="742.3756" ry="363.1621"/> <ellipse fill="none" stroke="#000000" stroke-width="2" stroke-miterlimit="10" cx="2605.2627" cy="2278.2163" rx="774.4783" ry="375.2007"/> <ellipse fill="none" stroke="#000000" stroke-width="2" stroke-miterlimit="10" cx="2625.3269" cy="2270.1904" rx="794.5425" ry="383.2263"/> <ellipse fill="none" stroke="#000000" stroke-width="2" stroke-miterlimit="10" cx="2647.3977" cy="2262.1648" rx="816.6132" ry="391.252"/> <ellipse fill="none" stroke="#000000" stroke-width="2" stroke-miterlimit="10" cx="2679.5002" cy="2248.1199" rx="848.7159" ry="405.2969"/> <ellipse fill="none" stroke="#000000" stroke-width="2" stroke-miterlimit="10" cx="2717.6223" cy="2232.0686" rx="886.8379" ry="421.3483"/> <ellipse fill="none" stroke="#000000" stroke-width="2" stroke-miterlimit="10" cx="2755.7444" cy="2218.0237" rx="924.9599" ry="435.3932"/> <ellipse fill="none" stroke="#000000" stroke-width="2" stroke-miterlimit="10" cx="2777.8149" cy="2209.9978" rx="947.0305" ry="443.4189"/> <ellipse fill="none" stroke="#000000" stroke-width="2" stroke-miterlimit="10" cx="2795.8728" cy="2201.9722" rx="965.0883" ry="451.4446"/> <ellipse fill="none" stroke="#000000" stroke-width="2" stroke-miterlimit="10" cx="2819.9497" cy="2193.9465" rx="989.1653" ry="459.4703"/> <ellipse fill="none" stroke="#000000" stroke-width="2" stroke-miterlimit="10" cx="2846.0332" cy="2179.9016" rx="1015.2488" ry="473.5153"/> <ellipse fill="none" stroke="#000000" stroke-width="2" stroke-miterlimit="10" cx="2876.1296" cy="2167.863" rx="1045.3451" ry="485.5538"/> <ellipse fill="none" stroke="#000000" stroke-width="2" stroke-miterlimit="10" cx="2904.2195" cy="2159.8374" rx="1073.4349" ry="493.5795"/> <ellipse fill="none" stroke="#000000" stroke-width="2" stroke-miterlimit="10" cx="2926.29" cy="2151.8118" rx="1095.5056" ry="501.6051"/> <ellipse fill="none" stroke="#000000" stroke-width="2" stroke-miterlimit="10" cx="2954.3799" cy="2143.7861" rx="1123.5955" ry="509.6308"/> <ellipse fill="none" stroke="#000000" stroke-width="2" stroke-miterlimit="10" cx="2992.502" cy="2133.7539" rx="1161.7175" ry="519.6629"/> <ellipse fill="none" stroke="#000000" stroke-width="2" stroke-miterlimit="10" cx="3026.6111" cy="2123.7219" rx="1195.8267" ry="529.695"/> <ellipse fill="none" stroke="#000000" stroke-width="2" stroke-miterlimit="10" cx="3050.6882" cy="2115.696" rx="1219.9037" ry="537.7207"/> <ellipse fill="none" stroke="#000000" stroke-width="2" stroke-miterlimit="10" cx="3074.7651" cy="2103.6577" rx="1243.9807" ry="549.7592"/> <ellipse fill="none" stroke="#000000" stroke-width="2" stroke-miterlimit="10" cx="3100.8486" cy="2091.6191" rx="1270.0642" ry="561.7977"/> <ellipse fill="none" stroke="#000000" stroke-width="2" stroke-miterlimit="10" cx="3146.9963" cy="2071.5549" rx="1316.2119" ry="581.8619"/> <ellipse fill="none" stroke="#000000" stroke-width="2" stroke-miterlimit="10" cx="3187.1248" cy="2053.4971" rx="1356.3403" ry="599.9197"/> <ellipse fill="none" stroke="#000000" stroke-width="2" stroke-miterlimit="10" cx="3217.2209" cy="2037.4458" rx="1386.4366" ry="615.9711"/> <ellipse fill="none" stroke="#000000" stroke-width="2" stroke-miterlimit="10" cx="3245.311" cy="2023.4008" rx="1414.5265" ry="630.0161"/> <ellipse fill="none" stroke="#000000" stroke-width="2" stroke-miterlimit="10" cx="3267.3816" cy="2013.3687" rx="1436.5972" ry="640.0482"/> <ellipse fill="none" stroke="#000000" stroke-width="2" stroke-miterlimit="10" cx="3285.4395" cy="2005.343" rx="1454.6549" ry="648.0739"/> <ellipse fill="none" stroke="#000000" stroke-width="2" stroke-miterlimit="10" cx="3299.4844" cy="1997.3174" rx="1468.6998" ry="656.0995"/> <ellipse fill="none" stroke="#000000" stroke-width="2" stroke-miterlimit="10" cx="3309.5164" cy="1991.2981" rx="1478.7319" ry="662.1188"/> <ellipse fill="none" stroke="#000000" stroke-width="2" stroke-miterlimit="10" cx="3319.5486" cy="1985.2788" rx="1488.764" ry="668.1381"/> <ellipse fill="none" stroke="#000000" stroke-width="2" stroke-miterlimit="10" cx="3321.5549" cy="1979.2595" rx="1490.7705" ry="674.1573"/> <ellipse fill="none" stroke="#000000" stroke-width="2" stroke-miterlimit="10" cx="3321.5549" cy="1977.2532" rx="1490.7705" ry="676.1637"/> <ellipse fill="none" stroke="#000000" stroke-width="2" stroke-miterlimit="10" cx="3321.5549" cy="1977.2532" rx="1490.7705" ry="676.1637"/> <ellipse fill="none" stroke="#000000" stroke-width="2" stroke-miterlimit="10" cx="3321.5549" cy="1977.2532" rx="1490.7705" ry="676.1637"/> <ellipse fill="none" stroke="#000000" stroke-width="2" stroke-miterlimit="10" cx="3325.5676" cy="1973.2402" rx="1494.7833" ry="680.1766"/> <ellipse fill="none" stroke="#000000" stroke-width="2" stroke-miterlimit="10" cx="3327.5742" cy="1961.2018" rx="1496.7897" ry="692.2151"/> <ellipse fill="none" stroke="#000000" stroke-width="2" stroke-miterlimit="10" cx="3329.5806" cy="1953.1761" rx="1498.7961" ry="700.2408"/> <ellipse fill="none" stroke="#000000" stroke-width="2" stroke-miterlimit="10" cx="3327.5742" cy="1947.1569" rx="1496.7897" ry="706.26"/> <ellipse fill="none" stroke="#000000" stroke-width="2" stroke-miterlimit="10" cx="3327.5742" cy="1939.1311" rx="1496.7897" ry="714.2857"/> <ellipse fill="none" stroke="#000000" stroke-width="2" stroke-miterlimit="10" cx="3325.5676" cy="1921.0734" rx="1494.7833" ry="732.3435"/> <ellipse fill="none" stroke="#000000" stroke-width="2" stroke-miterlimit="10" cx="3313.5293" cy="1892.9835" rx="1482.7448" ry="760.4334"/> <ellipse fill="none" stroke="#000000" stroke-width="2" stroke-miterlimit="10" cx="3293.4651" cy="1858.8743" rx="1462.6805" ry="794.5425"/> <ellipse fill="none" stroke="#000000" stroke-width="2" stroke-miterlimit="10" cx="3273.4009" cy="1838.8101" rx="1442.6163" ry="814.6068"/> <ellipse fill="none" stroke="#000000" stroke-width="2" stroke-miterlimit="10" cx="3255.343" cy="1824.7651" rx="1424.5586" ry="828.6517"/> <ellipse fill="none" stroke="#000000" stroke-width="2" stroke-miterlimit="10" cx="3233.2725" cy="1808.7139" rx="1402.4879" ry="844.7031"/> <ellipse fill="none" stroke="#000000" stroke-width="2" stroke-miterlimit="10" cx="3215.2146" cy="1798.6818" rx="1384.4302" ry="854.7352"/> <ellipse fill="none" stroke="#000000" stroke-width="2" stroke-miterlimit="10" cx="3193.144" cy="1782.6304" rx="1362.3595" ry="870.7865"/> <ellipse fill="none" stroke="#000000" stroke-width="2" stroke-miterlimit="10" cx="3159.0349" cy="1766.579" rx="1328.2504" ry="886.8379"/> <ellipse fill="none" stroke="#000000" stroke-width="2" stroke-miterlimit="10" cx="3122.9192" cy="1752.5341" rx="1292.1349" ry="900.8828"/> <ellipse fill="none" stroke="#000000" stroke-width="2" stroke-miterlimit="10" cx="3080.7844" cy="1740.4955" rx="1250" ry="912.9213"/> <ellipse fill="none" stroke="#000000" stroke-width="2" stroke-miterlimit="10" cx="3028.6174" cy="1728.457" rx="1197.833" ry="924.9599"/> <ellipse fill="none" stroke="#000000" stroke-width="2" stroke-miterlimit="10" cx="2988.489" cy="1716.4185" rx="1157.7047" ry="936.9984"/> <ellipse fill="none" stroke="#000000" stroke-width="2" stroke-miterlimit="10" cx="2900.2065" cy="1658.2323" rx="1069.4221" ry="995.1846"/> <ellipse fill="none" stroke="#000000" stroke-width="2" stroke-miterlimit="10" cx="2797.8792" cy="1612.0846" rx="967.0947" ry="1041.3323"/> <ellipse fill="none" stroke="#000000" stroke-width="2" stroke-miterlimit="10" cx="2693.5452" cy="1565.9369" rx="862.7609" ry="1087.48"/> <ellipse fill="none" stroke="#000000" stroke-width="2" stroke-miterlimit="10" cx="2615.2949" cy="1521.7957" rx="784.5104" ry="1131.6212"/> <ellipse fill="none" stroke="#000000" stroke-width="2" stroke-miterlimit="10" cx="2529.0188" cy="1483.6737" rx="698.2344" ry="1169.7432"/> <ellipse fill="none" stroke="#000000" stroke-width="2" stroke-miterlimit="10" cx="2470.8325" cy="1443.5453" rx="640.0482" ry="1209.8716"/> <ellipse fill="none" stroke="#000000" stroke-width="2" stroke-miterlimit="10" cx="2416.6592" cy="1401.4104" rx="585.8748" ry="1252.0065"/> <ellipse fill="none" stroke="#000000" stroke-width="2" stroke-miterlimit="10" cx="2364.4922" cy="1369.3077" rx="533.7079" ry="1284.1091"/> <ellipse fill="none" stroke="#000000" stroke-width="2" stroke-miterlimit="10" cx="2308.3125" cy="1343.2242" rx="477.5281" ry="1310.1926"/> <ellipse fill="none" stroke="#000000" stroke-width="2" stroke-miterlimit="10" cx="2234.075" cy="1327.1729" rx="403.2905" ry="1326.244"/> <ellipse fill="none" stroke="#000000" stroke-width="2" stroke-miterlimit="10" cx="2143.7861" cy="1331.1857" rx="313.0016" ry="1322.2311"/> <ellipse fill="none" stroke="#000000" stroke-width="2" stroke-miterlimit="10" cx="2069.5486" cy="1343.2242" rx="238.764" ry="1310.1926"/> <ellipse fill="none" stroke="#000000" stroke-width="2" stroke-miterlimit="10" cx="2035.4393" cy="1349.2435" rx="204.6549" ry="1304.1733"/> <ellipse fill="none" stroke="#000000" stroke-width="2" stroke-miterlimit="10" cx="1997.3174" cy="1373.3206" rx="166.5329" ry="1280.0963"/> <ellipse fill="none" stroke="#000000" stroke-width="2" stroke-miterlimit="10" cx="1959.1953" cy="1393.3848" rx="128.4109" ry="1260.0321"/> <ellipse fill="none" stroke="#000000" stroke-width="2" stroke-miterlimit="10" cx="1935.1183" cy="1409.4362" rx="104.3339" ry="1243.9807"/> <ellipse fill="none" stroke="#000000" stroke-width="2" stroke-miterlimit="10" cx="1913.0477" cy="1423.4811" rx="82.2632" ry="1229.9358"/> <ellipse fill="none" stroke="#000000" stroke-width="2" stroke-miterlimit="10" cx="1882.9514" cy="1445.5516" rx="52.1669" ry="1207.8651"/> <ellipse fill="none" stroke="#000000" stroke-width="2" stroke-miterlimit="10" cx="1852.8551" cy="1469.6288" rx="22.0706" ry="1183.7881"/> <ellipse fill="none" stroke="#000000" stroke-width="2" stroke-miterlimit="10" cx="1820.7523" cy="1495.7122" rx="10.0321" ry="1157.7047"/> <ellipse fill="none" stroke="#000000" stroke-width="2" stroke-miterlimit="10" cx="1788.6497" cy="1515.7764" rx="42.1348" ry="1137.6405"/> <ellipse fill="none" stroke="#000000" stroke-width="2" stroke-miterlimit="10" cx="1768.5854" cy="1525.8085" rx="62.199" ry="1127.6084"/> <ellipse fill="none" stroke="#000000" stroke-width="2" stroke-miterlimit="10" cx="1748.5212" cy="1539.8535" rx="82.2632" ry="1113.5634"/> <ellipse fill="none" stroke="#000000" stroke-width="2" stroke-miterlimit="10" cx="1720.4313" cy="1559.9176" rx="110.3531" ry="1093.4991"/> <ellipse fill="none" stroke="#000000" stroke-width="2" stroke-miterlimit="10" cx="1690.335" cy="1583.9948" rx="140.4494" ry="1069.4221"/> <ellipse fill="none" stroke="#000000" stroke-width="2" stroke-miterlimit="10" cx="1662.2451" cy="1602.0525" rx="168.5393" ry="1051.3644"/> <ellipse fill="none" stroke="#000000" stroke-width="2" stroke-miterlimit="10" cx="1646.1937" cy="1612.0846" rx="184.5907" ry="1041.3323"/> <ellipse fill="none" stroke="#000000" stroke-width="2" stroke-miterlimit="10" cx="1630.1423" cy="1616.0974" rx="200.6421" ry="1037.3195"/> <ellipse fill="none" stroke="#000000" stroke-width="2" stroke-miterlimit="10" cx="1616.0974" cy="1622.1167" rx="214.687" ry="1031.3002"/> <ellipse fill="none" stroke="#000000" stroke-width="2" stroke-miterlimit="10" cx="1598.0397" cy="1628.136" rx="232.7448" ry="1025.2809"/> <ellipse fill="none" stroke="#000000" stroke-width="2" stroke-miterlimit="10" cx="1573.9626" cy="1634.1553" rx="256.8218" ry="1019.2617"/> <ellipse fill="none" stroke="#000000" stroke-width="2" stroke-miterlimit="10" cx="1555.9048" cy="1644.1874" rx="274.8796" ry="1009.2296"/> <ellipse fill="none" stroke="#000000" stroke-width="2" stroke-miterlimit="10" cx="1537.847" cy="1646.1937" rx="292.9374" ry="1007.2231"/> <ellipse fill="none" stroke="#000000" stroke-width="2" stroke-miterlimit="10" cx="1523.8021" cy="1650.2065" rx="306.9823" ry="1003.2103"/> <ellipse fill="none" stroke="#000000" stroke-width="2" stroke-miterlimit="10" cx="1495.7122" cy="1654.2195" rx="335.0722" ry="999.1974"/> <ellipse fill="none" stroke="#000000" stroke-width="2" stroke-miterlimit="10" cx="1463.6095" cy="1660.2386" rx="367.175" ry="993.1782"/> <ellipse fill="none" stroke="#000000" stroke-width="2" stroke-miterlimit="10" cx="1427.4939" cy="1664.2516" rx="403.2905" ry="989.1653"/> <ellipse fill="none" stroke="#000000" stroke-width="2" stroke-miterlimit="10" cx="1395.3912" cy="1666.2579" rx="435.3932" ry="987.1589"/> <ellipse fill="none" stroke="#000000" stroke-width="2" stroke-miterlimit="10" cx="1377.3334" cy="1666.2579" rx="453.451" ry="987.1589"/> <ellipse fill="none" stroke="#000000" stroke-width="2" stroke-miterlimit="10" cx="1361.282" cy="1666.2579" rx="469.5024" ry="987.1589"/> <ellipse fill="none" stroke="#000000" stroke-width="2" stroke-miterlimit="10" cx="1335.1986" cy="1666.2579" rx="495.5859" ry="987.1589"/> <ellipse fill="none" stroke="#000000" stroke-width="2" stroke-miterlimit="10" cx="1305.1023" cy="1670.2708" rx="525.6822" ry="983.1461"/> <ellipse fill="none" stroke="#000000" stroke-width="2" stroke-miterlimit="10" cx="1266.9802" cy="1676.29" rx="563.8042" ry="977.1268"/> <ellipse fill="none" stroke="#000000" stroke-width="2" stroke-miterlimit="10" cx="1240.8969" cy="1680.3029" rx="589.8876" ry="973.114"/> <ellipse fill="none" stroke="#000000" stroke-width="2" stroke-miterlimit="10" cx="1220.8326" cy="1684.3158" rx="609.9518" ry="969.1011"/> <ellipse fill="none" stroke="#000000" stroke-width="2" stroke-miterlimit="10" cx="1206.7876" cy="1690.335" rx="623.9968" ry="963.0818"/> <ellipse fill="none" stroke="#000000" stroke-width="2" stroke-miterlimit="10" cx="1192.7427" cy="1694.3478" rx="638.0417" ry="959.069"/> <ellipse fill="none" stroke="#000000" stroke-width="2" stroke-miterlimit="10" cx="1172.6785" cy="1702.3735" rx="658.106" ry="951.0433"/> <ellipse fill="none" stroke="#000000" stroke-width="2" stroke-miterlimit="10" cx="1140.5758" cy="1716.4185" rx="690.2087" ry="936.9984"/> <ellipse fill="none" stroke="#000000" stroke-width="2" stroke-miterlimit="10" cx="1104.4602" cy="1744.5083" rx="726.3242" ry="908.9085"/> <ellipse fill="none" stroke="#000000" stroke-width="2" stroke-miterlimit="10" cx="1068.3446" cy="1786.6432" rx="762.4398" ry="866.7737"/> <ellipse fill="none" stroke="#000000" stroke-width="2" stroke-miterlimit="10" cx="1026.2098" cy="1862.8872" rx="804.5746" ry="790.5297"/> <ellipse fill="none" stroke="#000000" stroke-width="2" stroke-miterlimit="10" cx="1004.1392" cy="1923.0798" rx="826.6453" ry="730.3371"/> <ellipse fill="none" stroke="#000000" stroke-width="2" stroke-miterlimit="10" cx="1000.1263" cy="1961.2018" rx="830.6581" ry="692.2151"/> <ellipse fill="none" stroke="#000000" stroke-width="2" stroke-miterlimit="10" cx="1002.1328" cy="2001.3302" rx="828.6517" ry="652.0867"/> <ellipse fill="none" stroke="#000000" stroke-width="2" stroke-miterlimit="10" cx="1008.152" cy="2045.4714" rx="822.6324" ry="607.9454"/> <ellipse fill="none" stroke="#000000" stroke-width="2" stroke-miterlimit="10" cx="1014.1713" cy="2093.6255" rx="816.6132" ry="559.7913"/> <ellipse fill="none" stroke="#000000" stroke-width="2" stroke-miterlimit="10" cx="1022.197" cy="2145.7925" rx="808.5875" ry="507.6244"/> <ellipse fill="none" stroke="#000000" stroke-width="2" stroke-miterlimit="10" cx="1034.2355" cy="2193.9465" rx="796.549" ry="459.4703"/> <ellipse fill="none" stroke="#000000" stroke-width="2" stroke-miterlimit="10" cx="1048.2804" cy="2250.1262" rx="782.504" ry="403.2905"/> <ellipse fill="none" stroke="#000000" stroke-width="2" stroke-miterlimit="10" cx="1058.3125" cy="2302.2932" rx="772.4719" ry="351.1236"/> <ellipse fill="none" stroke="#000000" stroke-width="2" stroke-miterlimit="10" cx="1068.3446" cy="2362.4858" rx="762.4398" ry="290.931"/> <ellipse fill="none" stroke="#000000" stroke-width="2" stroke-miterlimit="10" cx="1084.396" cy="2434.717" rx="746.3884" ry="218.6998"/> <ellipse fill="none" stroke="#000000" stroke-width="2" stroke-miterlimit="10" cx="1092.4216" cy="2488.8904" rx="738.3627" ry="164.5265"/> <ellipse fill="none" stroke="#000000" stroke-width="2" stroke-miterlimit="10" cx="1084.396" cy="2544.0669" rx="746.3884" ry="109.3499"/> <ellipse fill="none" stroke="#000000" stroke-width="2" stroke-miterlimit="10" cx="1092.4216" cy="2571.1536" rx="738.3627" ry="82.2632"/> <ellipse fill="none" stroke="#000000" stroke-width="2" stroke-miterlimit="10" cx="1092.4216" cy="2612.2852" rx="738.3627" ry="41.1316"/> <ellipse fill="none" stroke="#000000" stroke-width="2" stroke-miterlimit="10" cx="1080.3832" cy="2659.436" rx="750.4013" ry="6.0193"/> <ellipse fill="none" stroke="#000000" stroke-width="2" stroke-miterlimit="10" cx="1076.3704" cy="2717.6223" rx="754.4141" ry="64.2055"/> <ellipse fill="none" stroke="#000000" stroke-width="2" stroke-miterlimit="10" cx="1074.3639" cy="2761.7637" rx="756.4205" ry="108.3467"/> <ellipse fill="none" stroke="#000000" stroke-width="2" stroke-miterlimit="10" cx="1068.3446" cy="2795.8728" rx="762.4398" ry="142.4559"/> <ellipse fill="none" stroke="#000000" stroke-width="2" stroke-miterlimit="10" cx="1060.319" cy="2831.9883" rx="770.4655" ry="178.5714"/> <ellipse fill="none" stroke="#000000" stroke-width="2" stroke-miterlimit="10" cx="1052.2932" cy="2868.1038" rx="778.4911" ry="214.687"/> <ellipse fill="none" stroke="#000000" stroke-width="2" stroke-miterlimit="10" cx="1044.2676" cy="2906.2258" rx="786.5168" ry="252.809"/> <ellipse fill="none" stroke="#000000" stroke-width="2" stroke-miterlimit="10" cx="1032.229" cy="2946.3542" rx="798.5554" ry="292.9374"/> <ellipse fill="none" stroke="#000000" stroke-width="2" stroke-miterlimit="10" cx="1022.197" cy="2978.457" rx="808.5875" ry="325.0401"/> <ellipse fill="none" stroke="#000000" stroke-width="2" stroke-miterlimit="10" cx="1012.1649" cy="3004.5405" rx="818.6196" ry="351.1236"/> <ellipse fill="none" stroke="#000000" stroke-width="2" stroke-miterlimit="10" cx="1004.1392" cy="3030.624" rx="826.6453" ry="377.2071"/> <ellipse fill="none" stroke="#000000" stroke-width="2" stroke-miterlimit="10" cx="998.1199" cy="3054.7009" rx="832.6646" ry="401.2841"/> <ellipse fill="none" stroke="#000000" stroke-width="2" stroke-miterlimit="10" cx="992.1006" cy="3082.7908" rx="838.6838" ry="429.374"/> <ellipse fill="none" stroke="#000000" stroke-width="2" stroke-miterlimit="10" cx="986.0814" cy="3104.8616" rx="844.7031" ry="451.4446"/> <ellipse fill="none" stroke="#000000" stroke-width="2" stroke-miterlimit="10" cx="980.0621" cy="3124.9258" rx="850.7223" ry="471.5088"/> <ellipse fill="none" stroke="#000000" stroke-width="2" stroke-miterlimit="10" cx="972.0364" cy="3155.022" rx="858.748" ry="501.6051"/> <ellipse fill="none" stroke="#000000" stroke-width="2" stroke-miterlimit="10" cx="964.0107" cy="3187.1248" rx="866.7737" ry="533.7079"/> <ellipse fill="none" stroke="#000000" stroke-width="2" stroke-miterlimit="10" cx="957.9915" cy="3229.2595" rx="872.7929" ry="575.8427"/> <ellipse fill="none" stroke="#000000" stroke-width="2" stroke-miterlimit="10" cx="953.9786" cy="3271.3943" rx="876.8058" ry="617.9775"/> <ellipse fill="none" stroke="#000000" stroke-width="2" stroke-miterlimit="10" cx="953.9786" cy="3297.4778" rx="876.8058" ry="644.061"/> <ellipse fill="none" stroke="#000000" stroke-width="2" stroke-miterlimit="10" cx="951.9722" cy="3319.5486" rx="878.8122" ry="666.1316"/> <ellipse fill="none" stroke="#000000" stroke-width="2" stroke-miterlimit="10" cx="949.9658" cy="3347.6384" rx="880.8186" ry="694.2215"/> <ellipse fill="none" stroke="#000000" stroke-width="2" stroke-miterlimit="10" cx="947.9594" cy="3389.7732" rx="882.825" ry="736.3563"/> <ellipse fill="none" stroke="#000000" stroke-width="2" stroke-miterlimit="10" cx="945.953" cy="3435.9209" rx="884.8315" ry="782.504"/> <ellipse fill="none" stroke="#000000" stroke-width="2" stroke-miterlimit="10" cx="943.9465" cy="3472.0364" rx="886.8379" ry="818.6196"/> <ellipse fill="none" stroke="#000000" stroke-width="2" stroke-miterlimit="10" cx="941.9401" cy="3490.0942" rx="888.8443" ry="836.6774"/> <ellipse fill="none" stroke="#000000" stroke-width="2" stroke-miterlimit="10" cx="939.9337" cy="3508.1521" rx="890.8507" ry="854.7352"/> <ellipse fill="none" stroke="#000000" stroke-width="2" stroke-miterlimit="10" cx="937.9273" cy="3532.229" rx="892.8571" ry="878.8122"/> <ellipse fill="none" stroke="#000000" stroke-width="2" stroke-miterlimit="10" cx="935.9209" cy="3570.3511" rx="894.8636" ry="916.9342"/> <ellipse fill="none" stroke="#000000" stroke-width="2" stroke-miterlimit="10" cx="933.9144" cy="3612.4858" rx="896.87" ry="959.069"/> <ellipse fill="none" stroke="#000000" stroke-width="2" stroke-miterlimit="10" cx="931.908" cy="3640.5757" rx="898.8764" ry="987.1589"/> <ellipse fill="none" stroke="#000000" stroke-width="2" stroke-miterlimit="10" cx="929.9016" cy="3658.6335" rx="900.8828" ry="1005.2167"/> <ellipse fill="none" stroke="#000000" stroke-width="2" stroke-miterlimit="10" cx="927.8952" cy="3684.717" rx="902.8892" ry="1031.3002"/> <ellipse fill="none" stroke="#000000" stroke-width="2" stroke-miterlimit="10" cx="923.8823" cy="3712.8069" rx="906.9021" ry="1059.39"/> <ellipse fill="none" stroke="#000000" stroke-width="2" stroke-miterlimit="10" cx="923.8823" cy="3732.8711" rx="906.9021" ry="1079.4542"/> <ellipse fill="none" stroke="#000000" stroke-width="2" stroke-miterlimit="10" cx="921.8759" cy="3740.8967" rx="908.9085" ry="1087.48"/> <ellipse fill="none" stroke="#000000" stroke-width="2" stroke-miterlimit="10" cx="921.8759" cy="3744.9097" rx="908.9085" ry="1091.4928"/> <ellipse fill="none" stroke="#000000" stroke-width="2" stroke-miterlimit="10" cx="917.8631" cy="3760.9609" rx="912.9213" ry="1107.5442"/> <ellipse fill="none" stroke="#000000" stroke-width="2" stroke-miterlimit="10" cx="917.8631" cy="3793.0637" rx="912.9213" ry="1139.6469"/> <ellipse fill="none" stroke="#000000" stroke-width="2" stroke-miterlimit="10" cx="915.8567" cy="3817.1409" rx="914.9278" ry="1163.7239"/> <ellipse fill="none" stroke="#000000" stroke-width="2" stroke-miterlimit="10" cx="915.8567" cy="3823.1602" rx="914.9278" ry="1169.7432"/> <ellipse fill="none" stroke="#000000" stroke-width="2" stroke-miterlimit="10" cx="915.8567" cy="3825.1665" rx="914.9278" ry="1171.7496"/> <ellipse fill="none" stroke="#000000" stroke-width="2" stroke-miterlimit="10" cx="915.8567" cy="3825.1665" rx="914.9278" ry="1171.7496"/> <ellipse fill="none" stroke="#000000" stroke-width="2" stroke-miterlimit="10" cx="915.8567" cy="3825.1665" rx="914.9278" ry="1171.7496"/> <ellipse fill="none" stroke="#000000" stroke-width="2" stroke-miterlimit="10" cx="915.8567" cy="3825.1665" rx="914.9278" ry="1171.7496"/> <ellipse fill="none" stroke="#000000" stroke-width="2" stroke-miterlimit="10" cx="915.8567" cy="3825.1665" rx="914.9278" ry="1171.7496"/> <ellipse fill="none" stroke="#000000" stroke-width="2" stroke-miterlimit="10" cx="915.8567" cy="3825.1665" rx="914.9278" ry="1171.7496"/> <ellipse fill="none" stroke="#000000" stroke-width="2" stroke-miterlimit="10" cx="915.8567" cy="3825.1665" rx="914.9278" ry="1171.7496"/> <ellipse fill="none" stroke="#000000" stroke-width="2" stroke-miterlimit="10" cx="915.8567" cy="3825.1665" rx="914.9278" ry="1171.7496"/> <ellipse fill="none" stroke="#000000" stroke-width="2" stroke-miterlimit="10" cx="915.8567" cy="3825.1665" rx="914.9278" ry="1171.7496"/> <ellipse fill="none" stroke="#000000" stroke-width="2" stroke-miterlimit="10" cx="915.8567" cy="3825.1665" rx="914.9278" ry="1171.7496"/> <ellipse fill="none" stroke="#000000" stroke-width="2" stroke-miterlimit="10" cx="915.8567" cy="3825.1665" rx="914.9278" ry="1171.7496"/> <ellipse fill="none" stroke="#000000" stroke-width="2" stroke-miterlimit="10" cx="915.8567" cy="3825.1665" rx="914.9278" ry="1171.7496"/> <ellipse fill="none" stroke="#000000" stroke-width="2" stroke-miterlimit="10" cx="915.8567" cy="3827.1729" rx="914.9278" ry="1173.756"/> </g> </svg>